# xmcd
#
# Track frame offsets: 
#        183
#        28888
#        51785
#        70485
#        91733
#        112920
#        136350
#        164753
#
# Disc length: 2458 seconds
#
# Revision: 1
# Processed by: cddbd v1.5.1PL2 Copyright (c) Steve Scherf et al.
# Submitted via: ExactAudioCopy v0.95b4
#
DISCID=6d099808
DTITLE=Leo's Sunshipp - We Need Each Other
DYEAR=1978
DGENRE=Soul/Disco
TTITLE0=Give Me The Sunshine (Vocal)
TTITLE1=I'm Back For More (Vocal)
TTITLE2=Get Down People (Vocal)
TTITLE3=Madame Butterfly (Mini-Tro)
TTITLE4=Madame Butterfly (Vocal)
TTITLE5=I'm Back For More (Mini-Tro)
TTITLE6=Give Me The Sunshine (Mini-Tro)
TTITLE7=Get Down People (Mini-Tro)
EXTD=
EXTT0=
EXTT1=
EXTT2=
EXTT3=
EXTT4=
EXTT5=
EXTT6=
EXTT7=
PLAYORDER=
